<svg id="visual" viewBox="0 0 1280 876" width="1280" height="876" xmlns="http://www.w3.org/2000/svg" xmlns:xlink="http://www.w3.org/1999/xlink" version="1.1"><rect x="0" y="0" width="1280" height="876" fill="#17181f"></rect><g transform="translate(-22.656299866415907 44.76445241091312)"><path d="M330 -440.5C438.6 -375.3 545 -293.5 605.9 -179.5C666.7 -65.6 681.9 80.4 620.3 180.3C558.6 280.2 420.1 333.9 303.9 377.1C187.7 420.4 93.9 453.2 -20.3 481.1C-134.4 509 -268.8 532 -361.5 481.1C-454.3 430.2 -505.3 305.5 -548.6 177.1C-591.9 48.7 -627.4 -83.3 -609.7 -216.8C-592.1 -350.3 -521.3 -485.2 -410.8 -549.8C-300.4 -614.4 -150.2 -608.7 -19.7 -581.5C110.7 -554.4 221.4 -505.7 330 -440.5" fill="#2a2200"></path></g></svg>