<svg id="visual" viewBox="0 0 960 540" width="960" height="540" xmlns="http://www.w3.org/2000/svg" xmlns:xlink="http://www.w3.org/1999/xlink" version="1.1"><rect x="0" y="0" width="960" height="540" fill="#17181f"></rect><path d="M186 0L201 12.8C216 25.7 246 51.3 265.8 77C285.7 102.7 295.3 128.3 292.7 154C290 179.7 275 205.3 257 231.2C239 257 218 283 220.3 308.8C222.7 334.7 248.3 360.3 242.7 386C237 411.7 200 437.3 186.8 463C173.7 488.7 184.3 514.3 189.7 527.2L195 540L0 540L0 527.2C0 514.3 0 488.7 0 463C0 437.3 0 411.7 0 386C0 360.3 0 334.7 0 308.8C0 283 0 257 0 231.2C0 205.3 0 179.7 0 154C0 128.3 0 102.7 0 77C0 51.3 0 25.7 0 12.8L0 0Z" fill="#382d00"></path><path d="M144 0L153.3 12.8C162.7 25.7 181.3 51.3 176.8 77C172.3 102.7 144.7 128.3 136.5 154C128.3 179.7 139.7 205.3 142 231.2C144.3 257 137.7 283 150.5 308.8C163.3 334.7 195.7 360.3 208.7 386C221.7 411.7 215.3 437.3 215.5 463C215.7 488.7 222.3 514.3 225.7 527.2L229 540L0 540L0 527.2C0 514.3 0 488.7 0 463C0 437.3 0 411.7 0 386C0 360.3 0 334.7 0 308.8C0 283 0 257 0 231.2C0 205.3 0 179.7 0 154C0 128.3 0 102.7 0 77C0 51.3 0 25.7 0 12.8L0 0Z" fill="#735e06"></path><path d="M95 0L99 12.8C103 25.7 111 51.3 126.7 77C142.3 102.7 165.7 128.3 173 154C180.3 179.7 171.7 205.3 153.7 231.2C135.7 257 108.3 283 99.3 308.8C90.3 334.7 99.7 360.3 100.8 386C102 411.7 95 437.3 98.7 463C102.3 488.7 116.7 514.3 123.8 527.2L131 540L0 540L0 527.2C0 514.3 0 488.7 0 463C0 437.3 0 411.7 0 386C0 360.3 0 334.7 0 308.8C0 283 0 257 0 231.2C0 205.3 0 179.7 0 154C0 128.3 0 102.7 0 77C0 51.3 0 25.7 0 12.8L0 0Z" fill="#b69305"></path><path d="M96 0L93.5 12.8C91 25.7 86 51.3 82 77C78 102.7 75 128.3 76.7 154C78.3 179.7 84.7 205.3 85.5 231.2C86.3 257 81.7 283 82.7 308.8C83.7 334.7 90.3 360.3 93.5 386C96.7 411.7 96.3 437.3 99 463C101.7 488.7 107.3 514.3 110.2 527.2L113 540L0 540L0 527.2C0 514.3 0 488.7 0 463C0 437.3 0 411.7 0 386C0 360.3 0 334.7 0 308.8C0 283 0 257 0 231.2C0 205.3 0 179.7 0 154C0 128.3 0 102.7 0 77C0 51.3 0 25.7 0 12.8L0 0Z" fill="#ffcc00"></path></svg>